Original IMDb title: L'armée des ombres 
http://alu5.rhzll.qjtv.e.s48.incloak.com/title/tt64040/
Source: Army.of.Shadows.1969.BluRay.720p.x264.DTS-MySiLU Thanks!
Subs: Brazilian, Dutch, English, Portuguese, Servian, Swedish, Vietnamese.
Sample and Screens included.
General
Complete name : Army of Shadows-720p MP4 AAC x264 BRRip 1969-CC.mp4
Format : MPEG-4
Format profile : Base Media
Codec ID : isom
File size : 2.76 GiB
Duration : 2h 25mn
Overall bit rate mode : Variable
Overall bit rate : 2 716 Kbps
Encoded date : UTC 2013-03-12 16:24:15
Tagged date : UTC 2013-03-12 16:24:15
Writing application : Yamb 2.1.0.0
Video
ID : 1
Format : AVC
Format/Info : Advanced Video Codec
Format profile : High@L4.1
Format settings, CABAC : Yes
Format settings, ReFrames : 5 frames
Codec ID : avc1
Codec ID/Info : Advanced Video Coding
Duration : 2h 25mn
Bit rate : 2 544 Kbps
Maximum bit rate : 18.2 Mbps
Width : 1 280 pixels
Height : 688 pixels
Display aspect ratio : 1.85:1
Frame rate mode : Variable
Frame rate : 23.976 fps
Minimum frame rate : 19.048 fps
Maximum frame rate : 24.390 fps
Color space : YUV
Chroma subsampling : 4:2:0
Bit depth : 8 bits
Scan type : Progressive
Bits/(Pixel*Frame) : 0.120
Stream size : 2.54 GiB (92%)
Writing library : x264 core 112
Encoding settings : cabac=1 / ref=5 / deblock=1:0:0 / analyse=0x3:0x113 / me=hex / subme=7 / psy=1 / psy_rd=1.00:0.00 / mixed_ref=1 / me_range=16 / chroma_me=1 / trellis=1 / 8x8dct=1 / cqm=0 / deadzone=21,11 / fast_pskip=1 / chroma_qp_offset=-2 / threads=3 / sliced_threads=0 / nr=0 / decimate=1 / interlaced=0 / constrained_intra=0 / bframes=5 / b_pyramid=2 / b_adapt=2 / b_bias=0 / direct=1 / weightb=1 / open_gop=0 / weightp=2 / keyint=240 / keyint_min=24 / scenecut=40 / intra_refresh=0 / rc_lookahead=50 / rc=abr / mbtree=1 / bitrate=2544 / ratetol=1.0 / qcomp=0.60 / qpmin=3 / qpmax=51 / qpstep=4 / ip_ratio=1.40 / aq=1:1.00
Encoded date : UTC 2013-03-13 06:24:55
Tagged date : UTC 2013-03-12 16:28:52
Color primaries : BT.709
Transfer characteristics : BT.709
Matrix coefficients : BT.709
Audio
ID : 2
Format : AAC
Format/Info : Advanced Audio Codec
Format profile : LC
Codec ID : 40
Duration : 2h 25mn
Bit rate mode : Variable
Bit rate : 211 Kbps
Maximum bit rate : 312 Kbps
Channel(s) : 2 channels
Channel positions : Front: L R
Sampling rate : 48.0 KHz
Compression mode : Lossy
Delay relative to video : 83ms
Stream size : 219 MiB (8%)
Language : French
Encoded date : UTC 2013-03-12 16:28:05
Tagged date : UTC 2013-03-12 16:28:52
Enjoy...
Requested by DreamExtractor
Coming soon: Tetro, A Boy, Touch of Evil, Brothers and more...